<svg viewBox="0 0 780 340" width="780" xmlns="http://www.w3.org/2000/svg" height="340"><rect x="0" y="0" width="780" height="340" fill="#1a2029"/><line x1="54" y1="16" x2="754" y2="16" stroke="#232c38" stroke-width="1"></line><text fill="#6f8098" font-size="10" text-anchor="end" x="48" y="19.5">60</text><line x1="54" y1="51.75" x2="754" y2="51.75" stroke="#232c38" stroke-width="1"></line><text fill="#6f8098" font-size="10" text-anchor="end" x="48" y="55.25">55</text><line x1="54" y1="87.5" x2="754" y2="87.5" stroke="#232c38" stroke-width="1"></line><text fill="#6f8098" font-size="10" text-anchor="end" x="48" y="91">50</text><line x1="54" y1="123.25" x2="754" y2="123.25" stroke="#232c38" stroke-width="1"></line><text fill="#6f8098" font-size="10" text-anchor="end" x="48" y="126.75">45</text><line x1="54" y1="159" x2="754" y2="159" stroke="#232c38" stroke-width="1"></line><text fill="#6f8098" font-size="10" text-anchor="end" x="48" y="162.5">40</text><line x1="54" y1="194.75" x2="754" y2="194.75" stroke="#232c38" stroke-width="1"></line><text fill="#6f8098" font-size="10" text-anchor="end" x="48" y="198.25">35</text><line x1="54" y1="230.5" x2="754" y2="230.5" stroke="#232c38" stroke-width="1"></line><text fill="#6f8098" font-size="10" text-anchor="end" x="48" y="234">30</text><line x1="54" y1="266.25" x2="754" y2="266.25" stroke="#232c38" stroke-width="1"></line><text fill="#6f8098" font-size="10" text-anchor="end" x="48" y="269.75">25</text><line x1="54" y1="302" x2="754" y2="302" stroke="#232c38" stroke-width="1"></line><text fill="#6f8098" font-size="10" text-anchor="end" x="48" y="305.5">20</text><line x1="54" y1="16" x2="54" y2="302" stroke="#232c38" stroke-width="1"></line><text fill="#6f8098" font-size="10" text-anchor="middle" x="54" y="317">5.5k</text><line x1="170.66666666666669" y1="16" x2="170.66666666666669" y2="302" stroke="#232c38" stroke-width="1"></line><text fill="#6f8098" font-size="10" text-anchor="middle" x="170.66666666666669" y="317">6.0k</text><line x1="287.33333333333337" y1="16" x2="287.33333333333337" y2="302" stroke="#232c38" stroke-width="1"></line><text fill="#6f8098" font-size="10" text-anchor="middle" x="287.33333333333337" y="317">6.5k</text><line x1="404" y1="16" x2="404" y2="302" stroke="#232c38" stroke-width="1"></line><text fill="#6f8098" font-size="10" text-anchor="middle" x="404" y="317">7.0k</text><line x1="520.6666666666667" y1="16" x2="520.6666666666667" y2="302" stroke="#232c38" stroke-width="1"></line><text fill="#6f8098" font-size="10" text-anchor="middle" x="520.6666666666667" y="317">7.6k</text><line x1="637.3333333333334" y1="16" x2="637.3333333333334" y2="302" stroke="#232c38" stroke-width="1"></line><text fill="#6f8098" font-size="10" text-anchor="middle" x="637.3333333333334" y="317">8.1k</text><line x1="754" y1="16" x2="754" y2="302" stroke="#232c38" stroke-width="1"></line><text fill="#6f8098" font-size="10" text-anchor="middle" x="754" y="317">8.6k</text><path d="M54.0 176.9 L76.6 184.0 L99.2 190.5 L121.7 196.2 L144.3 202.6 L166.9 208.3 L189.5 213.3 L212.1 219.1 L234.6 224.1 L257.2 229.1 L279.8 234.1 L302.4 238.4 L325.0 242.7 L347.5 246.9 L370.1 251.2 L392.7 254.1 L415.3 255.5 L437.9 256.2 L460.5 257.7 L483.0 258.4 L505.6 259.1 L528.2 259.8 L550.8 260.5 L573.4 261.2 L595.9 261.2 L618.5 262.0 L641.1 262.0 L663.7 262.0 L686.3 262.0 L708.8 262.0 L731.4 262.0 L754.0 261.2" fill="none" stroke="#38d39f" stroke-width="2.4" stroke-linejoin="round"></path><text fill="#38d39f" font-size="10" text-anchor="end" x="750" y="255.245">400 whp</text><path d="M54.0 131.1 L76.6 139.0 L99.2 146.1 L121.7 153.3 L144.3 159.7 L166.9 166.2 L189.5 172.6 L212.1 178.3 L234.6 184.0 L257.2 189.7 L279.8 195.5 L302.4 200.5 L325.0 205.5 L347.5 209.8 L370.1 214.8 L392.7 218.3 L415.3 219.8 L437.9 220.5 L460.5 221.9 L483.0 222.6 L505.6 224.1 L528.2 224.8 L550.8 225.5 L573.4 226.2 L595.9 226.2 L618.5 226.9 L641.1 226.9 L663.7 226.9 L686.3 226.9 L708.8 226.9 L731.4 226.9 L754.0 226.2" fill="none" stroke="#4ea3ff" stroke-width="2.4" stroke-linejoin="round"></path><text fill="#4ea3ff" font-size="10" text-anchor="end" x="750" y="220.21">450 whp</text><path d="M54.0 85.4 L76.6 93.9 L99.2 101.8 L121.7 109.7 L144.3 117.5 L166.9 124.7 L189.5 131.1 L212.1 138.3 L234.6 144.7 L257.2 150.4 L279.8 156.9 L302.4 162.6 L325.0 167.6 L347.5 173.3 L370.1 178.3 L392.7 181.9 L415.3 183.3 L437.9 184.7 L460.5 186.2 L483.0 187.6 L505.6 188.3 L528.2 189.0 L550.8 189.7 L573.4 190.5 L595.9 191.2 L618.5 191.9 L641.1 191.9 L663.7 191.9 L686.3 191.9 L708.8 191.9 L731.4 191.2 L754.0 191.2" fill="none" stroke="#ffb347" stroke-width="2.4" stroke-linejoin="round"></path><text fill="#ffb347" font-size="10" text-anchor="end" x="750" y="185.175">500 whp</text><path d="M54.0 39.6 L76.6 48.9 L99.2 58.2 L121.7 66.8 L144.3 74.6 L166.9 82.5 L189.5 90.4 L212.1 97.5 L234.6 104.7 L257.2 111.8 L279.8 118.2 L302.4 124.0 L325.0 130.4 L347.5 136.1 L370.1 141.8 L392.7 146.1 L415.3 147.6 L437.9 149.0 L460.5 150.4 L483.0 151.8 L505.6 153.3 L528.2 154.0 L550.8 154.7 L573.4 155.4 L595.9 156.1 L618.5 156.1 L641.1 156.9 L663.7 156.9 L686.3 156.9 L708.8 156.9 L731.4 156.1 L754.0 156.1" fill="none" stroke="#ff8f5a" stroke-width="2.4" stroke-linejoin="round"></path><text fill="#ff8f5a" font-size="10" text-anchor="end" x="750" y="150.14">550 whp</text><path d="M54.0 16.0 L76.6 16.0 L99.2 16.0 L121.7 23.2 L144.3 32.4 L166.9 41.0 L189.5 49.6 L212.1 57.5 L234.6 64.6 L257.2 72.5 L279.8 79.6 L302.4 86.1 L325.0 93.2 L347.5 99.7 L370.1 105.4 L392.7 110.4 L415.3 111.8 L437.9 114.0 L460.5 115.4 L483.0 116.8 L505.6 117.5 L528.2 119.0 L550.8 119.7 L573.4 120.4 L595.9 121.1 L618.5 121.1 L641.1 121.8 L663.7 121.8 L686.3 121.8 L708.8 121.8 L731.4 121.1 L754.0 121.1" fill="none" stroke="#ff6b6b" stroke-width="2.4" stroke-linejoin="round"></path><text fill="#ff6b6b" font-size="10" text-anchor="end" x="750" y="115.10500000000002">600 whp</text><line x1="54" y1="230.5" x2="754" y2="230.5" stroke="#9fb0c4" stroke-width="1.8" stroke-dasharray="7 4"></line><text fill="#9fb0c4" font-size="10" x="60" y="224.5">30 psi - sensible street ceiling on this bottom end</text><rect x="54" y="16" width="700" height="128.7" fill="#ff6b6b" fill-opacity="0.06"></rect><text fill="#ff8f8f" font-size="9.8" text-anchor="end" x="748" y="29">above 42 psi: no candidate compressor can do it</text><line x1="437.8709677419355" y1="16" x2="437.8709677419355" y2="302" stroke="#38d39f" stroke-width="1.3" stroke-dasharray="4 3"></line><text fill="#38d39f" font-size="9.5" x="441.8709677419355" y="294">7,200 recommended</text><line x1="54" y1="16" x2="54" y2="302" stroke="#3a4757" stroke-width="1"></line><line x1="54" y1="302" x2="754" y2="302" stroke="#3a4757" stroke-width="1"></line><text fill="#6f8098" font-size="11" text-anchor="middle" x="404" y="334">Redline, rpm</text><text fill="#6f8098" font-size="11" text-anchor="middle" x="0" y="0" transform="translate(13,159) rotate(-90)">Boost required, psi</text></svg>