<svg viewBox="0 0 780 330" width="780" xmlns="http://www.w3.org/2000/svg" height="330"><rect x="0" y="0" width="780" height="330" fill="#1a2029"/><line x1="58" y1="18" x2="754" y2="18" stroke="#232c38" stroke-width="1"></line><text fill="#6f8098" font-size="10" text-anchor="end" x="52" y="21.5">1</text><line x1="58" y1="72" x2="754" y2="72" stroke="#232c38" stroke-width="1"></line><text fill="#6f8098" font-size="10" text-anchor="end" x="52" y="75.5">-2</text><line x1="58" y1="126" x2="754" y2="126" stroke="#232c38" stroke-width="1"></line><text fill="#6f8098" font-size="10" text-anchor="end" x="52" y="129.5">-5</text><line x1="58" y1="180" x2="754" y2="180" stroke="#232c38" stroke-width="1"></line><text fill="#6f8098" font-size="10" text-anchor="end" x="52" y="183.5">-8</text><line x1="58" y1="234" x2="754" y2="234" stroke="#232c38" stroke-width="1"></line><text fill="#6f8098" font-size="10" text-anchor="end" x="52" y="237.5">-11</text><line x1="58" y1="288" x2="754" y2="288" stroke="#232c38" stroke-width="1"></line><text fill="#6f8098" font-size="10" text-anchor="end" x="52" y="291.5">-14</text><line x1="58" y1="18" x2="58" y2="288" stroke="#232c38" stroke-width="1"></line><text fill="#6f8098" font-size="10" text-anchor="middle" x="58" y="303">-1</text><line x1="174" y1="18" x2="174" y2="288" stroke="#232c38" stroke-width="1"></line><text fill="#6f8098" font-size="10" text-anchor="middle" x="174" y="303">2</text><line x1="290" y1="18" x2="290" y2="288" stroke="#232c38" stroke-width="1"></line><text fill="#6f8098" font-size="10" text-anchor="middle" x="290" y="303">4</text><line x1="406" y1="18" x2="406" y2="288" stroke="#232c38" stroke-width="1"></line><text fill="#6f8098" font-size="10" text-anchor="middle" x="406" y="303">7</text><line x1="522" y1="18" x2="522" y2="288" stroke="#232c38" stroke-width="1"></line><text fill="#6f8098" font-size="10" text-anchor="middle" x="522" y="303">9</text><line x1="638" y1="18" x2="638" y2="288" stroke="#232c38" stroke-width="1"></line><text fill="#6f8098" font-size="10" text-anchor="middle" x="638" y="303">12</text><line x1="754" y1="18" x2="754" y2="288" stroke="#232c38" stroke-width="1"></line><text fill="#6f8098" font-size="10" text-anchor="middle" x="754" y="303">14</text><path d="M104.4 36.0 L707.6 270.0" fill="none" stroke="#6f8098" stroke-width="1.2" stroke-linejoin="round" stroke-dasharray="5 4"></path><text fill="#6f8098" font-size="9.5" text-anchor="end" x="364.23999999999995" y="118.79999999999998">break-even</text><circle cx="104.4" cy="36" r="7" fill="#9fb0c4" fill-opacity="0.9"></circle><text fill="#9fb0c4" font-size="9.8" text-anchor="start" font-weight="700" x="113.4" y="40">610x300x75  (24x12x3)</text><circle cx="484.88" cy="169.20000000000002" r="5.5" fill="#ffb347" fill-opacity="0.9"></circle><text fill="#ffb347" font-size="9.8" text-anchor="start" font-weight="400" x="493.88" y="173.20000000000002">610x300x100 (24x12x4)</text><circle cx="689.0400000000001" cy="226.79999999999998" r="5.5" fill="#ffb347" fill-opacity="0.9"></circle><text fill="#ffb347" font-size="9.8" text-anchor="end" font-weight="400" x="680.0400000000001" y="230.79999999999998">610x300x115 (24x12x4.5)</text><circle cx="146.16" cy="86.40000000000002" r="5.5" fill="#38d39f" fill-opacity="0.9"></circle><text fill="#38d39f" font-size="9.8" text-anchor="start" font-weight="400" x="155.16" y="90.40000000000002">610x340x75 taller</text><circle cx="146.16" cy="82.8" r="5.5" fill="#38d39f" fill-opacity="0.9"></circle><text fill="#38d39f" font-size="9.8" text-anchor="start" font-weight="400" x="155.16" y="108.8">685x300x75 wider</text><circle cx="187.92" cy="131.4" r="5.5" fill="#38d39f" fill-opacity="0.9"></circle><text fill="#38d39f" font-size="9.8" text-anchor="start" font-weight="400" x="196.92" y="135.4">685x340x75 both</text><circle cx="568.4" cy="259.2" r="5.5" fill="#ffb347" fill-opacity="0.9"></circle><text fill="#ffb347" font-size="9.8" text-anchor="start" font-weight="400" x="577.4" y="263.2">685x340x100 everything</text><text fill="#38d39f" font-size="9.8" x="64" y="258">free wins: cooler charge, no radiator cost</text><text fill="#ffb347" font-size="9.8" text-anchor="end" x="748" y="274">trades: cooler charge, hotter radiator →</text><line x1="58" y1="18" x2="58" y2="288" stroke="#3a4757" stroke-width="1"></line><line x1="58" y1="288" x2="754" y2="288" stroke="#3a4757" stroke-width="1"></line><text fill="#6f8098" font-size="11" text-anchor="middle" x="406" y="324">Extra heat onto the radiator, °C (worse →)</text><text fill="#6f8098" font-size="11" text-anchor="middle" x="0" y="0" transform="translate(13,153) rotate(-90)">Charge temperature change, °C (better ↓)</text></svg>